<svg width="135px" height="109px" viewBox="0 0 135 109" version="1.1" xmlns="http://www.w3.org/2000/svg" xmlns:xlink="http://www.w3.org/1999/xlink">
    <title>Group 6</title>
    <defs>
        <polygon id="path-1" points="0.250001236 0.518917857 134.68655 0.518917857 134.68655 108.99987 0.250001236 108.99987"></polygon>
    </defs>
    <g id="Symbols" stroke="none" stroke-width="1" fill="none" fill-rule="evenodd">
        <g id="quote" transform="translate(-250.000000, -174.000000)">
            <g id="Group-7" transform="translate(95.000000, 112.000000)">
                <g id="Group-6" transform="translate(155.000000, 62.000000)">
                    <mask id="mask-2" fill="white">
                        <use xlink:href="#path-1"></use>
                    </mask>
                    <g id="Clip-5"></g>
                    <path d="M126.931082,10.8998702 C132.101739,17.818775 134.687067,26.811275 134.687067,37.8903464 C134.687067,52.763656 130.987462,66.5197155 123.570156,79.1546321 C116.161898,91.7830607 105.044987,101.733204 90.2194221,108.99987 L75.7415842,96.0236798 C87.8124815,91.8712988 97.7168738,84.4268583 105.472858,73.7046321 C113.228843,62.9746202 116.768157,52.5936679 116.072704,42.561775 L114.521507,42.0427274 C112.453244,45.1570131 108.495107,46.714156 102.628997,46.714156 C97.458341,46.714156 92.8047503,44.6379655 88.6682252,40.4855845 C84.5317001,36.3332036 82.4634375,30.7949655 82.4634375,23.8760607 C82.4634375,17.6474893 84.7100877,12.1974893 89.1852908,7.52606071 C93.6695425,2.85463214 99.1879256,0.518917857 105.731391,0.518917857 C114.699895,0.518917857 121.760426,3.97447738 126.931082,10.8998702 M51.440792,10.8998702 C56.6114483,17.818775 59.1967765,26.811275 59.1967765,37.8903464 C59.1967765,52.763656 55.4945866,66.5197155 48.0785727,79.1546321 C40.6703147,91.7830607 29.5534036,101.733204 14.7278391,108.99987 L0.250001236,96.0236798 C12.3208985,91.8712988 22.2252908,84.4268583 29.9812754,73.7046321 C37.7372599,62.9746202 41.2752815,52.5936679 40.5811209,42.561775 L39.029924,42.0427274 C36.9616615,45.1570131 33.003524,46.714156 27.1374144,46.714156 C21.966758,46.714156 17.3131673,44.6379655 13.1766422,40.4855845 C9.04011707,36.3332036 6.97185452,30.7949655 6.97185452,23.8760607 C6.97185452,17.6474893 9.21721205,12.1974893 13.6937078,7.52606071 C18.1779595,2.85463214 23.6963425,0.518917857 30.2398082,0.518917857 C39.2083117,0.518917857 46.2701356,3.97447738 51.440792,10.8998702" id="Fill-4" fill="#D2DEE7" mask="url(#mask-2)"></path>
                </g>
            </g>
        </g>
    </g>
</svg>